<?xml version="1.0" encoding="UTF-8"?>
<svg version="1.1" xmlns="http://www.w3.org/2000/svg" width="512" height="512">
<path d="M0 0 C21.67756776 10.25942795 43.2414984 30.07426202 52.203125 52.734375 C53.20471524 56.43743749 53.64848699 60.03253507 52.7578125 63.78515625 C49.76571346 68.80365252 46.10524247 72.72531662 41.97720337 76.83319092 C41.29606582 77.51885958 40.61492827 78.20452824 39.91315019 78.91097474 C37.63645168 81.20030298 35.35269547 83.482454 33.06884766 85.76464844 C31.43229313 87.40718889 29.79614919 89.05013853 28.16038513 90.69346619 C23.72103151 95.15047558 19.27521889 99.60098751 14.82766771 104.04981518 C11.11566139 107.76372151 7.40638869 111.48035252 3.69697702 115.19685006 C-4.55250194 123.46167794 -12.80665141 131.72181655 -21.0644825 139.97829887 C-21.5594728 140.47320927 -22.05446311 140.96811966 -22.56445312 141.47802734 C-23.06004992 141.97354238 -23.55564672 142.46905742 -24.0662616 142.97958806 C-32.10479401 151.01730688 -40.13329307 159.06496551 -48.15731589 167.11716685 C-56.40126734 175.38984001 -64.65282832 183.65485371 -72.91183436 191.91249776 C-77.54667515 196.54682812 -82.17834319 201.18422523 -86.80234909 205.82936859 C-91.14865583 210.19500081 -95.5044114 214.55097641 -99.86767387 218.89966011 C-101.46831685 220.49820717 -103.06554082 222.10018607 -104.65909386 223.70580101 C-106.83281944 225.89491242 -109.01847623 228.0713701 -111.20761108 230.24505615 C-112.15198534 231.2048611 -112.15198534 231.2048611 -113.11543787 232.18405604 C-117.77401966 236.77016277 -121.40306736 238.73936399 -128.1171875 238.84765625 C-137.08940842 237.35985609 -144.65242528 226.55366028 -150.796875 220.43359375 C-151.28350742 219.9497887 -151.77013985 219.46598366 -152.27151871 218.96751785 C-154.83765751 216.41623763 -157.40101249 213.86220089 -159.96191406 211.30566406 C-162.59796673 208.67513363 -165.24320359 206.054041 -167.89060783 203.43494225 C-169.93741402 201.40676678 -171.97747451 199.37190738 -174.01575089 197.33516312 C-174.98846294 196.3654678 -175.96366386 195.39826218 -176.94143295 194.43366623 C-178.3051066 193.08709054 -179.65840091 191.73002833 -181.01123047 190.37255859 C-181.78207977 189.60535492 -182.55292908 188.83815125 -183.34713745 188.04769897 C-186.31981841 184.49854856 -187.65126491 181.09650615 -187.3046875 176.47265625 C-186.72356513 172.7126472 -185.68209196 170.72852499 -183.11346722 167.93823051 C-182.16358805 166.90036734 -182.16358805 166.90036734 -181.1945194 165.84153724 C-178.24730913 162.73725606 -175.2698468 159.67142287 -172.23921204 156.64846802 C-171.57043429 155.97742472 -170.90165655 155.30638141 -170.21261281 154.61500347 C-167.9934615 152.38957249 -165.7708033 150.16767938 -163.5480957 147.94580078 C-161.94746341 146.34217344 -160.34703543 144.73834214 -158.74679565 143.13432312 C-154.41686671 138.79559051 -150.08372725 134.46007829 -145.74971414 130.12542582 C-143.04195993 127.41695967 -140.33491947 124.70778227 -137.62813377 121.99834824 C-128.67200463 113.03345746 -119.71382806 104.07062129 -110.75294147 95.1104864 C-110.2710699 94.6286548 -109.78919834 94.14682319 -109.29272461 93.65039062 C-108.81026215 93.16796905 -108.3277997 92.68554748 -107.83071717 92.18850707 C-99.99558183 84.353779 -92.16545922 76.51406214 -84.33756862 68.67209627 C-76.29089416 60.61106763 -68.24041699 52.55385706 -60.18622082 44.50034225 C-55.66784655 39.98222325 -51.15104755 35.46255614 -46.63808632 30.93902969 C-42.39979465 26.69108542 -38.15676691 22.44793057 -33.90999985 18.20845985 C-32.35057952 16.65008853 -30.79287437 15.08999876 -29.23699379 13.52809334 C-27.11731202 11.40073412 -24.99159761 9.27959381 -22.86421204 7.15994263 C-21.93751448 6.22552973 -21.93751448 6.22552973 -20.99209577 5.2722398 C-20.42065499 4.70539782 -19.84921421 4.13855583 -19.26045704 3.55453682 C-18.52569416 2.81944789 -18.52569416 2.81944789 -17.77608758 2.06950867 C-12.34637712 -2.4768512 -6.39065211 -2.39456965 0 0 Z " fill="#000000" transform="translate(428.2421875,32.21484375)"/>
<path d="M0 0 C12.44789354 11.63297416 19.90220466 28.05158066 21 45 C21.34581004 64.85356449 14.99817665 81.1492464 1.3046875 95.71875 C-11.29436575 108.18967728 -27.18986362 114.16810938 -44.8125 114.4375 C-63.7698616 114.30913869 -79.15823235 107.20825745 -92.8984375 94.203125 C-105.50448817 80.85554194 -110.61784741 64.27438167 -110.40722656 46.21704102 C-109.81186885 28.07439024 -101.90359532 11.8617966 -88.80078125 -0.64453125 C-62.09782607 -23.10182829 -26.6707064 -21.35753815 0 0 Z M-64 32 C-64.721875 32.825 -65.44375 33.65 -66.1875 34.5 C-70.78576133 40.84242943 -70.83977779 47.40664085 -70 55 C-67.83284474 62.28768954 -63.41049238 67.91954192 -57 72 C-50.27327479 74.74222177 -42.57880899 75.3531624 -35.5546875 73.27734375 C-27.98271815 69.72168514 -22.84557232 63.48210419 -19.6875 55.8125 C-18.37158746 48.51516681 -18.99042382 41.28859911 -22.71875 34.77734375 C-27.63279345 27.96060665 -34.86664264 24.13623634 -43.06640625 22.6171875 C-51.17186541 22.12594755 -58.89488227 25.84382862 -64 32 Z " fill="#000000" transform="translate(120,388)"/>
<path d="M0 0 C3.95061816 3.33322895 7.81475168 6.68955919 11.46655273 10.35302734 C12.66700478 11.55359268 12.66700478 11.55359268 13.89170837 12.77841187 C14.73053055 13.62239532 15.56935272 14.46637878 16.43359375 15.3359375 C17.31153091 16.21528961 18.18946808 17.09464172 19.0940094 18.00064087 C21.87754412 20.78974058 24.65756769 23.58231018 27.4375 26.375 C29.33216665 28.2752542 31.2275963 30.17474653 33.12304688 32.07421875 C37.75135161 36.71350604 42.37678421 41.35564167 47 46 C42.19002801 51.79042635 37.02199348 57.11389049 31.68994141 62.42358398 C30.31337372 63.80037071 30.31337372 63.80037071 28.90899658 65.20497131 C26.41166478 67.70258812 23.91127842 70.197126 21.41030169 72.69109225 C18.78999074 75.30511998 16.17254206 77.92201063 13.55477905 80.53858948 C8.60583285 85.48443695 3.65434478 90.4277314 -1.29807818 95.37009722 C-6.93975807 101.00057054 -12.57857317 106.6339092 -18.21715808 112.26748168 C-29.80827038 123.84816263 -41.40294693 135.42526815 -53 147 C-55.33867193 143.92211149 -57.42888822 140.76463383 -59.5 137.5 C-63.02496274 132.15019621 -66.95160402 127.51869054 -71.40625 122.921875 C-73.64077156 120.59822722 -74.96410822 119.10767533 -76 116 C-77.31815001 115.30379401 -78.65605371 114.64500433 -80 114 C-82.7212742 111.95025471 -85.39037341 109.85273186 -88.046875 107.72070312 C-91.52814611 104.97899782 -94.94299407 102.85690755 -99 101 C-97.5366459 97.6270886 -95.67212401 95.42490922 -93.07699585 92.83648682 C-92.25807358 92.01481522 -91.43915131 91.19314362 -90.59541321 90.34657288 C-89.24566658 89.00761208 -89.24566658 89.00761208 -87.86865234 87.64160156 C-86.91227483 86.68578838 -85.95633786 85.72953422 -85.00080872 84.77287292 C-82.40836168 82.1798522 -79.80979564 79.59304305 -77.21009016 77.00730228 C-74.49322558 74.30294243 -71.78202584 71.59291562 -69.07022095 68.88348389 C-63.9354292 63.75490766 -58.79556062 58.6314509 -53.6538502 53.50981212 C-47.79991108 47.67822974 -41.95165175 41.84096554 -36.10386348 36.00321627 C-24.07555271 23.99580913 -12.0401258 11.99555963 0 0 Z " fill="#000000" transform="translate(235,230)"/>
<path d="M0 0 C10.41513152 4.3103475 18.70328412 11.64597198 26.82421875 19.28515625 C27.44039062 19.82527344 28.0565625 20.36539062 28.69140625 20.921875 C36.99981712 28.52196513 46.31997836 41.88114977 47.01171875 53.41015625 C43.57654677 61.72688841 35.11842287 68.10493169 28.82421875 74.28515625 C27.83421875 73.95515625 26.84421875 73.62515625 25.82421875 73.28515625 C24.6484375 70.6953125 24.6484375 70.6953125 23.51171875 67.34765625 C16.14688007 47.38220862 1.90049706 32.80184816 -17.17578125 23.78515625 C-21.11546221 22.05652073 -25.08035354 20.60154373 -29.17578125 19.28515625 C-27.59164987 15.3248278 -24.82347919 12.73910547 -21.80078125 9.84765625 C-19.02560654 7.17265496 -16.36163443 4.51763575 -13.94921875 1.5 C-10.18484894 -3.20131648 -5.17717924 -1.7009404 0 0 Z " fill="#000000" transform="translate(125.17578125,340.71484375)"/>
<path d="M0 0 C4.41982661 3.12121776 6.68098654 6.78235017 7.7890625 12.0625 C8.2580632 16.0798613 8.29539564 20.06517073 8.2734375 24.10546875 C8.0125629 27.45639755 8.0125629 27.45639755 9.2734375 29.60546875 C9.8921875 29.29609375 10.5109375 28.98671875 11.1484375 28.66796875 C15.21029571 26.63703964 17.61616561 26.06212036 22.2734375 26.60546875 C24.66882433 28.39548549 26.3109042 30.30786879 28.2734375 32.60546875 C26.7342574 36.2729888 24.51858298 38.59127448 21.703125 41.37109375 C20.80722656 42.26054688 19.91132813 43.15 18.98828125 44.06640625 C18.05113281 44.98679688 17.11398437 45.9071875 16.1484375 46.85546875 C15.19355113 47.80031731 14.23911891 48.74562508 13.28515625 49.69140625 C10.95234663 52.00065213 8.61499664 54.30510078 6.2734375 56.60546875 C1.46855708 54.92136615 -0.37324586 53.22158985 -2.7265625 48.60546875 C-2.62917816 44.61271061 -0.88945878 41.89683266 1.2734375 38.60546875 C-2.42193752 36.1418854 -4.09917329 36.48479474 -8.4765625 36.66796875 C-15.74642449 36.76529955 -19.30310719 35.75508023 -25.4140625 31.91796875 C-29.841294 27.49073725 -31.94636391 22.88578206 -32.2265625 16.60546875 C-31.9300841 10.56472141 -30.26854701 5.99639271 -25.8203125 1.8125 C-17.47802153 -4.73993377 -9.30202679 -5.10895933 0 0 Z M-18.7265625 9.60546875 C-21.29256206 12.68466822 -21.73502235 14.12325754 -21.6640625 18.16796875 C-20.62287481 21.98565693 -19.97531504 23.38263806 -16.7265625 25.60546875 C-12.26819591 26.92646626 -10.48887192 27.01485714 -6.3515625 24.79296875 C-2.89291602 21.91076335 -2.79807402 21.33250255 -2.3515625 16.79296875 C-2.40185133 13.33561191 -2.69974838 12.64253533 -4.8515625 9.66796875 C-9.97224409 5.99443631 -13.73813971 5.56080162 -18.7265625 9.60546875 Z " fill="#000000" transform="translate(349.7265625,13.39453125)"/>
<path d="M0 0 C4.37475152 2.6349576 7.69958784 5.71883495 9.73828125 10.4453125 C10.7382962 14.8246883 10.47633257 19.1935621 10.25 23.65625 C10.30502774 26.94612286 10.87936451 28.99226765 12.3046875 31.92578125 C13.1503125 31.24515625 13.9959375 30.56453125 14.8671875 29.86328125 C18.3046875 27.92578125 18.3046875 27.92578125 21.8046875 27.73828125 C25.3046875 28.92578125 25.3046875 28.92578125 31.3046875 35.92578125 C23.7146875 43.51578125 16.1246875 51.10578125 8.3046875 58.92578125 C1.13227371 54.14417205 1.13227371 54.14417205 0.3046875 50.92578125 C0.62901182 44.76361909 0.62901182 44.76361909 2.8671875 41.98828125 C3.3415625 41.63765625 3.8159375 41.28703125 4.3046875 40.92578125 C-0.30165363 38.22358113 -3.27636085 37.68527457 -8.5703125 38.05078125 C-15.06681631 38.19469114 -18.89235869 37.3284889 -23.6953125 32.92578125 C-27.78263281 28.83846094 -29.57681931 24.5793214 -29.765625 18.7578125 C-29.36860162 11.9733835 -26.89431668 7.0415962 -22.04296875 2.31640625 C-15.67894073 -2.47343302 -7.31473942 -2.91529469 0 0 Z M-17.6953125 12.92578125 C-19.31865921 16.17247466 -19.39072753 19.42864603 -18.6953125 22.92578125 C-15.64386214 26.49821094 -13.78106763 27.75434623 -9.1328125 28.48828125 C-5.17156513 27.84007714 -3.50731876 26.73778751 -0.6953125 23.92578125 C0.85493214 20.82529197 0.59460765 18.34683907 0.3046875 14.92578125 C-1.49093655 12.17249104 -2.74786172 10.39950664 -5.6953125 8.92578125 C-11.19555092 8.40689083 -13.76335751 8.99382626 -17.6953125 12.92578125 Z " fill="#000000" transform="translate(254.6953125,104.07421875)"/>
<path d="M0 0 C19.72242258 5.61126164 35.99196211 24.01079078 46.3359375 40.88671875 C49.13106477 46.11610004 51.1042028 51.0774577 50 57 C47.32163191 60.3735582 44.37040104 63.31706343 41 66 C40.34 66 39.68 66 39 66 C37.61204075 63.79451751 36.32784506 61.58714123 35.0625 59.3125 C30.17337528 50.81904341 24.29415629 43.04421758 17.1796875 36.265625 C16 35 16 35 16 33 C15.13761719 32.61908203 15.13761719 32.61908203 14.2578125 32.23046875 C11.74451577 30.86076551 9.96001301 29.27056572 7.875 27.3125 C0.29203237 20.46176656 -7.72962861 15.28015019 -17 11 C-16.67 10.01 -16.34 9.02 -16 8 C-15.34 8 -14.68 8 -14 8 C-13.773125 7.4225 -13.54625 6.845 -13.3125 6.25 C-10.03171311 0.6257939 -6.33172289 -0.83038989 0 0 Z " fill="#000000" transform="translate(452,10)"/>
</svg>
